<?xml version="1.0" encoding="utf-8"?>
<!-- Generator: Adobe Illustrator 23.0.1, SVG Export Plug-In . SVG Version: 6.00 Build 0)  -->
<svg version="1.1" id="Logo" xmlns="http://www.w3.org/2000/svg" xmlns:xlink="http://www.w3.org/1999/xlink" x="0px" y="0px"
	 viewBox="0 0 210 50" width="210px" height="50px" style="enable-background:new 0 0 210 50;" xml:space="preserve">
<style type="text/css">
	.st0{fill:none;stroke:#FFFFFF;stroke-width:2.5;stroke-miterlimit:10;}
	.st1{fill:none;stroke:#FFFFFF;stroke-width:2;stroke-linecap:round;stroke-linejoin:round;stroke-miterlimit:10;}
	.st2{fill:#FFFFFF;}
</style>
<g>
	<g>
		<path class="st0" d="M13.5,48H3.9V4h39.4v19.3c0,7.3-4.5,14.4-11.2,17.6c-6.2,3-13,2-18.2-2.7c-0.1-0.1-0.3-0.3-0.4-0.4
			C13.5,37.9,13.5,48,13.5,48z"/>
		<path class="st1" d="M24.9,27.4c1.7,0,3.1-1.5,3.1-3.3c0-2.3-1.7-4.1-3.9-4.1c-2.8,0-4.9,2.3-4.9,5.1c0,3.6,2.8,6.4,6.2,6.4
			c4.3,0,7.7-3.6,7.7-8.1c0-5.6-4.3-10.1-9.7-10.1c-6.7,0-10.7,4.6-10.7,11.6c0.2,3.7,1.6,7.2,4.3,9.7c8.9,8,21.5-0.7,21.5-11.2V9
			H8.7v35.3"/>
	</g>
</g>
<g>
	<path class="st2" d="M63,31c-0.5,1.3-0.9,2-2.4,2c-1.6,0-2-1-2.4-2l-4.3-11.2c-0.1-0.2-0.3-0.6-0.4-0.6c-0.3,0-0.3,0.4-0.3,0.5
		l0.1,13.1h-3.2V18.1c0-2.2,2.2-2.2,2.7-2.2c1.9,0,2.5,1,3,2.2l4.3,11.2c0.1,0.4,0.3,0.6,0.5,0.6c0.1,0,0.3-0.3,0.5-0.6L65.4,18
		c0.7-1.9,1.8-2.2,3-2.2c1.6,0,2.7,0.7,2.7,2.2v14.8h-3.2L68,19.8c0-0.5-0.2-0.5-0.3-0.5c-0.2,0-0.3,0.4-0.4,0.6L63,31z"/>
	<path class="st2" d="M78.8,37H76l1.9-4.2l-5.7-12.7h2.9l4.1,9.8l4.3-9.7h2.9L78.8,37z"/>
	<path class="st2" d="M87.5,32.9V18.6c0-0.6,0-1.3,0.6-1.9c0.6-0.6,1.3-0.6,1.9-0.6h8c0.9,0,2.3,0,3.3,1c1.2,1.1,1.3,3,1.3,4.4
		c0,1.4-0.1,3.5-1.5,4.6c-0.6,0.5-1.6,0.8-2.6,0.8h-7.9v6H87.5z M96.7,24.4c0.7,0,1.5,0,2.1-0.6c0.5-0.6,0.6-1.7,0.6-2.3
		c0-0.7-0.1-1.8-0.6-2.3c-0.6-0.6-1.4-0.6-2-0.6h-5.1c-0.2,0-0.5,0-0.7,0.2c-0.2,0.2-0.2,0.5-0.2,0.8v4.8H96.7z"/>
	<path class="st2" d="M108.8,32.9c-1.3,0-2.8-0.1-3.9-1.6c-0.8-1.2-0.9-3-0.9-4.6c0-2.4,0.1-4.1,1.5-5.3s3.6-1.2,4.8-1.2
		c1.5,0,3,0.1,4.2,0.8c1.5,0.9,1.8,2.5,1.8,4.1c0,0.6-0.1,1.4-0.6,1.9c-0.4,0.4-0.9,0.5-1.4,0.5h-7.4c0,0.6,0.1,1.4,0.2,1.8
		c0.4,1.4,1.5,1.5,2.6,1.5h6.2v2.2H108.8z M112.7,25.3c0.6,0,0.6-0.4,0.6-0.7c0-0.8-0.4-1.4-0.8-1.7c-0.7-0.5-1.6-0.6-2.4-0.6
		c-0.7,0-1.9,0-2.7,0.8c-0.6,0.6-0.6,1.3-0.6,2.2H112.7z"/>
	<path class="st2" d="M117.7,25c0-1.4,0.2-2.8,1.3-3.7c1.2-1,2.8-1.1,3.8-1.1h1.9v2.2h-1.2c-0.7,0-1.7,0.1-2.4,0.9
		c-0.5,0.6-0.6,1.5-0.6,2.5v7.2h-2.8V25z"/>
	<path class="st2" d="M127.3,32.9V22.3h-1.8v-2.1h1.8c0-0.8,0.2-2.3,1.3-3.2c1.2-1,3.5-1.1,5-1.1V18c-1.4,0-2.3,0-2.8,0.4
		c-0.4,0.2-0.7,0.8-0.7,1.8h3.5v2.2h-3.5v10.6H127.3z"/>
	<path class="st2" d="M139.1,32.9c-1.3,0-2.8-0.1-3.9-1.6c-0.8-1.2-0.9-3-0.9-4.6c0-2.4,0.1-4.1,1.5-5.3c1.4-1.2,3.6-1.2,4.8-1.2
		c1.5,0,3,0.1,4.2,0.8c1.5,0.9,1.8,2.5,1.8,4.1c0,0.6-0.1,1.4-0.6,1.9c-0.4,0.4-0.9,0.5-1.4,0.5h-7.4c0,0.6,0.1,1.4,0.2,1.8
		c0.4,1.4,1.5,1.5,2.6,1.5h6.2v2.2H139.1z M143,25.3c0.6,0,0.6-0.4,0.6-0.7c0-0.8-0.4-1.4-0.8-1.7c-0.7-0.5-1.6-0.6-2.4-0.6
		c-0.7,0-1.9,0-2.7,0.8c-0.6,0.6-0.6,1.3-0.6,2.2H143z"/>
	<path class="st2" d="M152.6,32.9c-1,0-2.6-0.2-3.8-1.6c-1.1-1.2-1.2-2.8-1.2-4.6c0-1.5,0-3.7,1.4-5.2c0.5-0.5,1.6-1.4,3.9-1.4h5.4
		v2.2h-4.5c-1.9,0-2.8,0.9-3.1,2c-0.2,0.7-0.2,2-0.2,2.4c0,0.7,0.1,2,0.4,2.6c0.6,1.2,2,1.3,3.2,1.3h4.6v2.2H152.6z"/>
	<path class="st2" d="M165.9,32.9c-1.7,0-2.6-0.3-3.4-0.9c-0.8-0.7-1.3-1.6-1.3-3.2v-6.4h-1.8v-2.2h1.8v-4.1h2.8v4.1h3.6v2.2H164
		v5.1c0,0.9-0.1,2.1,0.7,2.7c0.6,0.5,1.7,0.6,2.2,0.6h0.7v2.2H165.9z"/>
	<path class="st2" d="M174.3,17.8c0.6-1.4,1.2-1.9,2.8-1.9c1.4,0,2.2,0.5,2.8,1.9l6.3,15.1h-3.3l-1.7-4.2H173l-1.7,4.2H168
		L174.3,17.8z M173.9,26.4h6.5l-2.7-6.8c-0.1-0.2-0.3-0.7-0.5-0.7s-0.4,0.5-0.5,0.7L173.9,26.4z"/>
	<path class="st2" d="M187.4,32.9V16.1h3.2v16.8H187.4z"/>
	<path class="st2" d="M195.1,32.9c-1.2,0-1.8-0.4-1.9-0.5c-0.3-0.2-0.7-0.7-0.7-1.7v-12c0-0.6,0-1.3,0.6-2c0.2-0.3,0.8-0.7,1.8-0.7
		h6.6c2.3,0,3.9,0.9,4.9,2c1.6,1.8,1.7,4.2,1.7,6.2c0,1.8-0.1,4.7-1.5,6.5c-0.7,0.9-2.1,2.1-4.7,2.1H195.1z M195.7,29.2
		c0,0.3,0,0.6,0.2,0.9c0.2,0.2,0.5,0.2,0.8,0.2h3.6c1.8,0,2.9-0.4,3.6-1.6c0.4-0.6,0.8-1.9,0.8-4.8c0-1.4-0.1-3.1-1.2-4.2
		c-1-1-2.5-1.2-3.6-1.2h-3.3c-0.2,0-0.5,0-0.7,0.2c-0.2,0.1-0.3,0.5-0.3,0.8V29.2z"/>
</g>
</svg>
